<?xml version="1.0" encoding="UTF-8" standalone="no"?>
<!-- Created with Inkscape (http://www.inkscape.org/) -->

<svg
   width="119.86589mm"
   height="155.56053mm"
   viewBox="0 0 119.86589 155.56053"
   version="1.1"
   id="svg1"
   xml:space="preserve"
   inkscape:version="1.3.2 (091e20ef0f, 2023-11-25)"
   sodipodi:docname="logo.svg"
   xmlns:inkscape="http://www.inkscape.org/namespaces/inkscape"
   xmlns:sodipodi="http://sodipodi.sourceforge.net/DTD/sodipodi-0.dtd"
   xmlns="http://www.w3.org/2000/svg"
   xmlns:svg="http://www.w3.org/2000/svg"><sodipodi:namedview
     id="namedview1"
     pagecolor="#ffffff"
     bordercolor="#000000"
     borderopacity="0.25"
     inkscape:showpageshadow="2"
     inkscape:pageopacity="0.0"
     inkscape:pagecheckerboard="0"
     inkscape:deskcolor="#d1d1d1"
     inkscape:document-units="mm"
     inkscape:zoom="0.37193248"
     inkscape:cx="150.56496"
     inkscape:cy="650.65574"
     inkscape:window-width="1440"
     inkscape:window-height="900"
     inkscape:window-x="0"
     inkscape:window-y="0"
     inkscape:window-maximized="0"
     inkscape:current-layer="layer1" /><defs
     id="defs1" /><g
     inkscape:label="Layer 1"
     inkscape:groupmode="layer"
     id="layer1"
     transform="translate(-46.489117,-34.381245)"><g
       id="g6"
       transform="translate(1.7189091,-6.6518035)"><path
         style="opacity:0.9;fill:#c87137;stroke:#ff0000;stroke-width:0.1"
         d="m 50.064442,110.94977 c 0,0 -5.790097,-2.17094 -0.349269,5.99232 5.440826,8.16325 16.258437,14.64094 16.258437,14.64094 l 11.528883,8.11821 17.617688,3.67791 23.523139,-5.65307 22.67258,-8.04059 18.68618,-26.31178 -0.9287,-24.415578 -2.34161,-12.15001 -3.94304,-6.62092 -4.81296,-2.096212 c 0,0 -23.20309,-6.124993 -40.76247,-2.256253 C 89.653921,59.70348 86.132486,81.794666 71.64603,94.092873 57.159577,106.39108 50.064442,110.94977 50.064442,110.94977 Z"
         id="path2" /><path
         style="fill:#000000"
         d="m 86.533634,147.77428 c -1.33658,-0.15522 -4.74901,-0.97019 -6.46083,-1.54301 -5.41078,-1.81055 -11.24104,-5.1888 -19.02026,-11.02096 -3.60171,-2.70024 -3.92815,-2.90039 -5.86284,-3.59453 -4.18555,-1.50172 -7.0871,-3.9877 -8.93337,-7.6539 -1.00075,-1.98723 -1.36749,-3.51863 -1.4681,-6.13033 -0.10418,-2.70439 0.23564,-4.70597 1.21704,-7.16861 l 0.621631,-0.9372 -0.174841,-5.74539 c -0.07897,-2.59512 -0.56853,-5.372478 -0.3171,-7.84231 1.32165,-12.982346 7.74147,-23.859199 19.19096,-32.514506 1.54935,-1.171236 2.35676,-2.132241 3.57767,-4.258245 1.09586,-1.908234 1.91604,-2.96604 3.24138,-4.180473 1.51043,-1.38403 2.8799,-2.087641 6.45206,-3.314951 3.40073,-1.168408 4.14681,-1.544089 5.62271,-2.831266 2.30258,-2.008149 3.65991,-2.717899 6.70874,-3.508003 2.46462,-0.638708 3.50306,-1.047568 4.63817,-1.826163 0.4155,-0.284998 1.27097,-0.777805 1.90105,-1.095128 3.355326,-1.689811 6.336116,-1.932852 10.165706,-0.828867 l 1.38724,0.399909 1.58732,-0.514009 c 1.31834,-0.426908 1.98055,-0.528777 3.90791,-0.60116 2.08742,-0.0784 2.53823,-0.03795 4.48674,0.402553 l 2.16616,0.489704 3.00893,-0.228211 c 3.90339,-0.296052 7.00543,-0.169364 8.65273,0.353379 1.41434,0.448818 2.9952,1.212133 4.14466,2.001239 0.43652,0.299666 1.94242,1.042955 3.34646,1.651754 1.40404,0.608798 3.17844,1.484029 3.94311,1.944959 2.62578,1.582775 5.01317,4.177407 6.53979,7.107494 l 0.50975,0.978376 1.51661,0.391026 c 4.82523,1.244084 7.83691,4.150069 8.96857,8.653819 0.23214,0.923854 0.27928,1.775842 0.22563,4.077933 -0.13485,5.787039 -0.0841,6.824949 0.41797,8.553886 1.87676,6.462398 2.31509,9.334391 2.16638,14.194435 -0.055,1.796341 -0.21702,3.827429 -0.36012,4.513528 -0.1431,0.686099 -0.3511,2.194052 -0.46224,3.351007 -0.37682,3.922761 -1.33639,7.636031 -2.68571,10.392891 -5.11823,10.45734 -6.24998,12.26351 -9.07988,14.49065 -0.84293,0.6634 -2.80729,2.44173 -4.36525,3.95186 -1.55796,1.51013 -3.3388,3.08743 -3.95743,3.50511 -1.55315,1.04866 -4.02709,2.17415 -5.99692,2.72822 -2.98665,0.84008 -5.30829,2.22805 -7.72661,4.6193 -2.10381,2.08026 -3.58609,2.8037 -6.49232,3.16863 -4.29979,0.53992 -5.07611,0.71395 -7.2426,1.62361 -3.14716,1.3214 -5.38975,1.78465 -8.71877,1.80101 -3.08307,0.0152 -5.81738,0.33225 -8.419666,0.97639 -3.71791,0.9203 -5.52099,1.14454 -8.95266,1.11343 -1.64905,-0.0149 -3.27605,-0.0594 -3.61556,-0.0989 z m 6.33696,-7.28825 c 0.81265,-0.1019 2.55662,-0.46187 3.87548,-0.79995 3.585756,-0.91916 5.210286,-1.13938 9.188126,-1.24555 4.18979,-0.11181 5.16384,-0.28856 7.71698,-1.40027 2.30049,-1.00171 3.81235,-1.39136 6.39252,-1.64755 3.45168,-0.34273 3.55763,-0.38447 5.37788,-2.11853 2.7907,-2.65855 5.80002,-4.40997 9.82277,-5.71683 3.7528,-1.21916 4.56589,-1.7483 7.90366,-5.14361 1.11553,-1.13476 2.50444,-2.42403 3.08646,-2.86505 2.4756,-1.87584 3.08244,-2.64788 4.76146,-6.05765 0.63956,-1.29883 1.36387,-2.75834 1.60956,-3.24335 0.24569,-0.48502 0.86687,-1.71519 1.3804,-2.73372 1.52023,-3.01521 2.0466,-4.95091 2.46991,-9.082995 0.14907,-1.455043 0.37059,-3.042362 0.49228,-3.527376 0.14083,-0.561324 0.22093,-2.163924 0.22038,-4.40922 -9.9e-4,-4.022347 -0.21142,-5.385209 -1.56778,-10.154096 -1.07773,-3.789192 -1.24633,-5.404426 -0.98108,-9.398671 0.16524,-2.48812 0.16545,-3.424934 9.5e-4,-4.216613 -0.44162,-2.125458 -2.00126,-3.322398 -4.77052,-3.661122 -2.44273,-0.298782 -2.61157,-0.341772 -3.16228,-0.805167 -0.30794,-0.259116 -1.0618,-1.482019 -1.81297,-2.940989 -0.97314,-1.890074 -1.54974,-2.777737 -2.37094,-3.650006 -1.32244,-1.404675 -2.29145,-2.002221 -5.56413,-3.431149 -1.39184,-0.607714 -3.06643,-1.443322 -3.72129,-1.856905 -2.51561,-1.588752 -3.94609,-1.808973 -8.71886,-1.342265 -3.28709,0.321429 -3.66541,0.30044 -6.81195,-0.37793 -2.5804,-0.556312 -3.46341,-0.4991 -6.04274,0.391518 -2.22415,0.76798 -3.03887,0.769968 -5.18432,0.01265 -2.65018,-0.935479 -4.32389,-0.781176 -6.522886,0.60136 -2.00454,1.260273 -4.24722,2.244625 -6.19009,2.716936 -3.23278,0.785889 -3.69188,1.019093 -6.06017,3.078313 -1.63082,1.417991 -2.40059,1.812063 -5.58838,2.860902 -1.48148,0.48743 -3.15823,1.133886 -3.72612,1.436567 -1.2918,0.688525 -2.376,1.882995 -3.43436,3.783687 -1.64187,2.948599 -2.47728,3.839771 -6.66654,7.111489 -7.47292,5.836187 -12.52663,13.780442 -14.2672,22.427522 -0.86577,4.301089 -0.96372,7.91689 -0.34943,12.89819 0.14109,1.1441 0.26144,2.74998 0.26745,3.56862 0.0101,1.37087 -0.0446,1.61054 -0.69161,3.0345 -0.83414,1.8357 -0.85762,1.91113 -1.07308,3.44748 -0.33205,2.36768 0.35696,4.69886 1.86748,6.31833 1.13036,1.2119 1.78495,1.60262 4.37991,2.61439 2.37553,0.92621 3.46582,1.50308 4.41352,2.33517 0.33565,0.29471 0.61028,0.48595 0.61028,0.42498 0,-0.24199 -1.32454,-2.72983 -2.07319,-3.89399 -0.43666,-0.67902 0.0376,0.50686 -0.205198,-0.22539 l -0.607655,-1.83261 0.670199,-0.4111 c 0.949367,-0.58234 1.463824,0.75544 2.741874,1.59742 1.70645,1.12422 3.80278,3.32635 5.11777,5.37605 1.68332,2.62382 3.53837,5.10224 4.39435,5.87099 1.02774,0.92302 2.72501,1.98545 5.08219,3.18128 5.43029,2.75487 9.70356,3.68028 14.32093,3.10131 z m 0.250505,-8.88941 c -4.74787,-0.26559 -9.302125,-0.86322 -12.912035,-2.28822 -1.23713,-0.48836 -1.61203,-0.73769 -1.61203,-1.07212 0,-0.36152 0.48075,-0.38508 3.17464,-0.15553 10.77741,0.91834 18.337136,1.46264 25.310836,0.12489 4.44981,-0.8536 12.33872,-3.41113 12.20965,-3.82191 -0.12212,-0.38865 8.41248,-3.14791 7.24736,-3.51337 -1.75731,-0.55121 -4.64473,-0.63975 -7.6988,-0.23609 -3.55966,0.47048 -9.25936,0.42111 -9.25936,-0.0802 0,-0.0715 0.8135,-0.31182 1.80778,-0.53392 0.99428,-0.22211 3.03795,-0.76429 4.5415,-1.20485 5.47627,-1.60463 7.40429,-1.94179 10.03246,-1.7544 1.39443,0.0994 2.19241,0.27233 5.48799,1.18918 2.10985,0.58697 -5.36731,2.15325 -2.52317,1.1376 4.82082,-1.72152 11.15196,-5.75174 15.94614,-10.15085 1.23291,-1.1313 1.68052,-1.31641 1.07408,-0.44418 -5.72245,8.23046 -18.77285,15.0828 -29.05305,19.11517 -8.95258,3.51162 -14.67644,4.1977 -23.773991,3.6888 z M 58.787794,114.454 c -0.16816,-0.16816 0.17287,-0.7087 1.70795,-2.70718 5.85862,-7.40831 14.440748,-11.749172 22.15778,-16.922139 7.93844,-5.341006 8.97768,-6.022985 11.37578,-7.465162 7.636466,-4.59242 12.400656,-5.63126 25.838026,-12.647799 5.1953,-2.712806 8.06034,-4.026612 10.49394,-4.812142 4.1926,-1.353308 5.82737,-1.618729 9.96484,-1.617895 2.9731,5.99e-4 3.65174,0.05412 5.00752,0.394945 2.2921,0.576197 3.9136,1.558439 3.54834,2.149446 -0.21125,0.341805 -1.35877,0.382346 -3.08473,0.108981 -5.07775,-0.804237 -7.94152,-0.02121 -19.13971,5.233234 -1.74605,0.819288 -4.14249,1.896067 -5.32543,2.392844 -4.87259,2.046256 -10.47842,5.06535 -17.72378,8.28975 -8.849306,3.938188 -11.383756,5.41307 -18.221086,10.603472 -11.9275,9.054505 -10.861061,5.726605 -23.2459,14.937425 -2.08837,1.55315 -3.18701,2.22875 -3.35354,2.06222 z"
         id="path1"
         sodipodi:nodetypes="scssssscscssssssssscssscsssssscssscssssssssssscscsssssssssssssssssssssssssssssssssssssssccssssssscssssssssssssssssssssssssssssssssssssssss" /><path
         d="m 83.263719,85.133694 c 6.31265,-2.792043 12.55679,-1.609277 6.49256,1.347694 M 64.122629,85.23148 c 0.19434,-1.050455 1.36256,-3.740227 2.1195,-4.880068 2.09418,-3.153535 5.07017,-5.207321 9.43774,-6.513173 1.8017,-0.538688 3.31531,-0.851185 7.00418,-1.446072 3.36474,-0.542614 4.97192,-0.895615 6.11413,-1.342905 0.47337,-0.185374 0.9008,-0.296929 0.94983,-0.247899 0.049,0.04903 -0.0468,0.296575 -0.21289,0.550102 -1.37765,2.102562 -3.47387,3.351218 -9.3482,5.568455 -8.37259,3.16019 -11.64312,4.885357 -14.57967,7.690602 -0.7383,0.705287 -1.40191,1.28234 -1.47467,1.28234 -0.0728,0 -0.0772,-0.297622 -0.01,-0.661382 z"
         style="fill:#000000"
         id="path1-6" /><path
         d="m 83.815035,113.39751 c 0.19434,-1.05045 11.707376,-10.36221 12.91698,-11.0018 5.334285,-2.820548 4.683805,-3.202545 9.051375,-4.508397 1.8017,-0.538688 3.72877,-1.915888 7.46049,-3.304022 3.19436,-1.188249 23.25387,-8.623941 24.39608,-9.071231 0.47337,-0.185374 0.9008,-0.296929 0.94983,-0.247899 0.049,0.04903 -0.0468,0.296575 -0.21289,0.550102 -1.37765,2.102562 -21.82,10.353043 -27.69433,12.57028 -8.37259,3.160187 -20.750419,11.622677 -23.686969,14.427917 -0.7383,0.70529 -2.619569,1.75864 -3.170616,1.24643 -0.05332,-0.0496 -0.591295,0.18947 -0.01,-0.66138 z"
         style="fill:#000000"
         id="path3"
         sodipodi:nodetypes="cssssscssscc" /><path
         d="m 99.71871,102.17209 c 0.61562,-0.87306 2.80117,-2.8283 3.96525,-3.547415 3.22059,-1.98951 6.78259,-2.611372 11.29616,-1.972112 1.86192,0.263705 3.36759,0.612477 6.96741,1.613932 3.28352,0.913461 4.89112,1.264548 6.11573,1.335629 0.50751,0.02946 0.94244,0.106772 0.96649,0.171807 0.024,0.06502 -0.16648,0.249859 -0.42333,0.410759 -2.13037,1.33425 -7.78652,-0.920678 -14.04985,-1.361778 -8.92702,-0.62871 -9.38933,2.084598 -13.2296,3.405608 -0.96551,0.33212 -1.809567,0.57897 -1.875666,0.54856 -0.06614,-0.0304 0.05427,-0.30264 0.26736,-0.60501 z"
         style="fill:#000000"
         id="path4"
         sodipodi:nodetypes="cssssccssscc" /></g><text
       xml:space="preserve"
       style="font-size:7.05556px;font-family:FreeSans;-inkscape-font-specification:FreeSans;opacity:0.9;fill:#000000;stroke:none;stroke-width:0.1"
       x="106.18951"
       y="188.47417"
       id="text4"><tspan
         sodipodi:role="line"
         style="font-style:normal;font-variant:normal;font-weight:normal;font-stretch:normal;font-size:7.05556px;font-family:Monospace;-inkscape-font-specification:Monospace;text-align:center;text-anchor:middle;fill:#000000;stroke:none;stroke-width:0.1"
         x="106.18951"
         y="188.47417"
         id="tspan5">File System</tspan></text><text
       xml:space="preserve"
       style="font-size:10.5833px;font-family:FreeSans;-inkscape-font-specification:FreeSans;text-align:center;text-anchor:middle;opacity:1;fill:#ffffff;stroke:#a05a2c;stroke-width:7.51901;stroke-dasharray:none"
       x="96.13076"
       y="190.28831"
       id="text6"><tspan
         sodipodi:role="line"
         id="tspan6"
         style="stroke-width:7.519"
         x="96.13076"
         y="190.28831"></tspan></text><g
       id="g9"
       transform="translate(0.6356131)"><text
         xml:space="preserve"
         style="font-size:23.9209px;font-family:FreeSans;-inkscape-font-specification:FreeSans;text-align:center;text-anchor:middle;opacity:1;fill:#ffffff;stroke:#a05a2c;stroke-width:16.9948;stroke-dasharray:none"
         x="106.18414"
         y="174.71498"
         id="text7"><tspan
           sodipodi:role="line"
           id="tspan7"
           style="font-style:normal;font-variant:normal;font-weight:bold;font-stretch:normal;font-family:Monospace;-inkscape-font-specification:'Monospace Bold';fill:#000000;stroke:none;stroke-width:16.9948"
           x="106.18414"
           y="174.71498">Walnut</tspan></text><text
         xml:space="preserve"
         style="font-size:23.9209px;font-family:FreeSans;-inkscape-font-specification:FreeSans;text-align:center;text-anchor:middle;opacity:1;fill:#f9f9f9;stroke:#a05a2c;stroke-width:16.9948;stroke-dasharray:none"
         x="106.73168"
         y="175.07603"
         id="text9"><tspan
           sodipodi:role="line"
           id="tspan9"
           style="font-style:normal;font-variant:normal;font-weight:bold;font-stretch:normal;font-family:Monospace;-inkscape-font-specification:'Monospace Bold';fill:#f9f9f9;stroke:none;stroke-width:16.9948"
           x="106.73168"
           y="175.07603">Walnut</tspan></text><text
         xml:space="preserve"
         style="font-size:23.9209px;font-family:FreeSans;-inkscape-font-specification:FreeSans;text-align:center;text-anchor:middle;opacity:1;fill:#784421;stroke:#a05a2c;stroke-width:16.9948;stroke-dasharray:none"
         x="107.25757"
         y="175.38995"
         id="text8"><tspan
           sodipodi:role="line"
           id="tspan8"
           style="font-style:normal;font-variant:normal;font-weight:bold;font-stretch:normal;font-family:Monospace;-inkscape-font-specification:'Monospace Bold';fill:#784421;stroke:none;stroke-width:16.9948"
           x="107.25757"
           y="175.38995">Walnut</tspan></text></g><rect
       style="opacity:1;fill:#784421;stroke:none;stroke-width:1.30885;stroke-dasharray:none"
       id="rect9"
       width="12.523852"
       height="0.90448964"
       x="100.16013"
       y="146.96873" /></g></svg>
